<svg width="512" height="512" viewBox="0 0 512 512" fill="none" xmlns="http://www.w3.org/2000/svg">
<path d="M425.327 206.634L446.535 185.427L506.526 245.418L485.318 266.625L425.327 206.634Z" fill="black"/>
<path d="M245.366 26.6344L266.574 5.42653L326.565 65.4176L305.357 86.6255L245.366 26.6344Z" fill="black"/>
<path d="M425.346 65.4366L485.337 5.44553L506.545 26.6534L446.554 86.6445L425.346 65.4366Z" fill="black"/>
<path d="M42.422 512L192.88 361.542L234.994 487.006L387.982 124.018L24.994 277.006L150.458 319.12L0 469.578L42.422 512Z" fill="black"/>
<path d="M361 0H391V61H361V0Z" fill="black"/>
<path d="M451 121H512V151H451V121Z" fill="black"/>
</svg>
