<svg width="512" height="512" viewBox="0 0 512 512" fill="none" xmlns="http://www.w3.org/2000/svg">
<path d="M437.126 74.939C337.3 -24.887 174.819 -24.887 74.993 74.939C26.637 123.314 0 187.617 0 256.005C0 324.393 26.637 388.696 74.993 437.052C124.916 486.975 190.488 511.926 256.059 511.926C321.63 511.926 387.203 486.975 437.125 437.052C536.951 337.226 536.951 174.784 437.126 74.939ZM409.08 409.006C324.705 493.381 187.413 493.381 103.038 409.006C62.18 368.148 39.668 313.802 39.668 256.005C39.668 198.208 62.18 143.862 103.038 102.984C187.413 18.609 324.705 18.629 409.08 102.984C493.435 187.359 493.435 324.651 409.08 409.006Z" fill="black"/>
<path d="M341.525 310.827L285.374 254.756L341.525 198.685C349.26 190.95 349.26 178.395 341.545 170.639C333.79 162.864 321.235 162.884 313.48 170.619L257.29 226.73L201.1 170.619C193.345 162.884 180.79 162.864 173.035 170.639C165.3 178.394 165.3 190.949 173.055 198.685L229.206 254.756L173.055 310.827C165.3 318.562 165.3 331.117 173.035 338.873C176.903 342.76 182 344.684 187.078 344.684C192.156 344.684 197.233 342.74 201.101 338.892L257.291 282.781L313.481 338.892C317.349 342.76 322.426 344.684 327.504 344.684C332.582 344.684 337.679 342.74 341.547 338.873C349.28 331.117 349.28 318.562 341.525 310.827Z" fill="black"/>
</svg>
