<svg width="512" height="512" viewBox="0 0 512 512" fill="none" xmlns="http://www.w3.org/2000/svg">
<path d="M0 15.845V436.104H164.332V466.153H134.296V496.154H377.703V466.153H347.667V436.104H512V15.845H0ZM317.665 466.153H194.334V436.104H317.666V466.153H317.665ZM481.999 406.103H30.001V346.028H481.998V406.103H481.999ZM481.999 316.027H30.001V45.847H481.998V316.027H481.999Z" fill="black"/>
<path d="M203.943 126.712L182.729 105.498L107.29 180.937L182.729 256.375L203.943 235.161L149.718 180.937L203.943 126.712Z" fill="black"/>
<path d="M329.271 105.498L308.057 126.712L362.282 180.937L308.057 235.161L329.271 256.375L404.709 180.937L329.271 105.498Z" fill="black"/>
<path d="M258.701 90.4758L223.874 265.559L253.3 271.413L288.127 96.3292L258.701 90.4758Z" fill="black"/>
</svg>
