<svg width="512" height="512" viewBox="0 0 512 512" fill="none" xmlns="http://www.w3.org/2000/svg">
<path d="M258.138 81.9482C257.583 81.9422 257.034 81.9382 256.479 81.9382C219.808 81.9382 185.046 95.9776 158.44 121.575C131.419 147.57 116.006 182.41 115.041 219.677C114.208 251.782 123.879 282.304 143.008 307.942C165.34 337.876 177.146 372.777 177.146 408.871V512H334.082L334.1 413.083C334.1 375.572 346.421 339.317 369.731 308.238C388.201 283.613 397.963 254.284 397.963 223.424C397.963 185.922 383.439 150.585 357.067 123.926C330.716 97.2883 295.583 82.3804 258.138 81.9482ZM304.066 481.984H207.161V429.524H304.066V481.984ZM240.89 307.401C240.89 299.282 247.496 292.676 255.614 292.676C263.732 292.676 270.338 299.282 270.338 307.401C270.338 315.519 263.732 322.125 255.614 322.125C247.496 322.125 240.89 315.52 240.89 307.401ZM345.718 290.228C321.291 322.798 307.19 360.331 304.542 399.509H270.622V349.543C287.931 343.361 300.354 326.807 300.354 307.401C300.354 282.731 280.284 262.661 255.615 262.661C230.946 262.661 210.875 282.731 210.875 307.401C210.875 326.807 223.299 343.36 240.607 349.543V399.509H206.938C205.059 360.253 191.371 322.571 167.065 289.994C152.004 269.807 144.39 245.761 145.047 220.455C146.615 159.934 197.144 111.245 257.793 111.962C318.533 112.662 367.948 162.664 367.948 223.424C367.947 247.738 360.26 270.839 345.718 290.228Z" fill="black"/>
<path d="M187.088 227.874L208.312 249.098C220.946 236.464 237.745 229.505 255.614 229.505C273.482 229.505 290.281 236.464 302.917 249.098L324.141 227.874C305.836 209.57 281.5 199.489 255.614 199.489C229.728 199.489 205.391 209.57 187.088 227.874Z" fill="black"/>
<path d="M241.378 0H271.394V36.5733H241.378V0Z" fill="black"/>
<path d="M124.144 39.0376L150.138 24.0297L168.424 55.7021L142.43 70.71L124.144 39.0376Z" fill="black"/>
<path d="M42.1399 131.465L57.1478 105.472L88.8203 123.758L73.8124 149.752L42.1399 131.465Z" fill="black"/>
<path d="M423.166 125.089L454.837 106.803L469.845 132.796L438.173 151.082L423.166 125.089Z" fill="black"/>
<path d="M344.135 56.486L362.422 24.8136L388.416 39.8215L370.129 71.494L344.135 56.486Z" fill="black"/>
</svg>
