<svg width="512" height="512" viewBox="0 0 512 512" fill="none" xmlns="http://www.w3.org/2000/svg">
<path d="M333.023 279.156C358.133 342.684 376.777 408.086 388.895 474.902C406.18 464.363 422.336 451.699 437.02 437.02C475.16 398.875 499.773 350.812 508.469 298.648C471 283.148 429.965 274.57 386.961 274.57C368.578 274.57 350.562 276.156 333.023 279.156V279.156Z" fill="white"/>
<path d="M437.234 75.1992C437.16 75.1289 437.09 75.0508 437.02 74.9805C388.664 26.6289 324.379 0 256 0C229.262 0 203.148 4.08984 178.371 11.9414C218.086 61.6992 253.023 114.801 282.965 170.922C339.371 146.973 391.328 114.523 437.234 75.1992Z" fill="white"/>
<path d="M457.348 97.8594C409.191 139.223 355.379 172.742 296.82 197.793C305.453 215.172 313.605 232.828 321.301 250.746C342.789 246.656 364.715 244.57 386.961 244.57C430.051 244.57 471.961 252.32 511.73 267.574C511.902 263.73 512 259.875 512 256.004C512 197.91 492.773 142.781 457.348 97.8594V97.8594Z" fill="white"/>
<path d="M98.4258 457.801C143.242 492.941 198.156 512 256 512C292.766 512 328.344 504.289 360.902 489.656C348.699 418.945 329.16 350.719 303.09 285.785C212.492 310.512 137.852 374.27 98.4258 457.801V457.801Z" fill="white"/>
<path d="M251.16 271.992C264.328 266.422 277.75 261.703 291.383 257.82C284.188 241.344 276.555 225.102 268.523 209.09C199.363 234.77 126.641 247.781 51.9375 247.781C34.582 247.781 17.3398 247.066 0.222656 245.668C0.0859375 249.102 0 252.547 0 256.004C0 324.383 26.6289 388.668 74.9805 437.02C74.9961 437.035 75.0156 437.051 75.0312 437.066C91.7539 403.715 113.625 373.402 140.273 346.75C172.309 314.719 209.613 289.566 251.16 271.992Z" fill="white"/>
<path d="M254.492 182.145C224.113 125.883 188.57 72.8008 148.512 23.5273C121.516 36.0312 96.6445 53.3164 74.9805 74.9805C36.2461 113.715 11.4688 162.68 3.14062 215.781C19.2344 217.098 35.5078 217.781 51.9375 217.781C123.039 217.781 191.262 205.195 254.492 182.145Z" fill="white"/>
</svg>
