<svg width="512" height="512" viewBox="0 0 512 512" fill="none" xmlns="http://www.w3.org/2000/svg">
<g clip-path="url(#clip0)">
<path d="M432 234.667C426.304 234.667 420.715 235.285 415.317 236.416C408.128 163.691 346.581 106.667 272 106.667C263.168 106.667 256 113.835 256 122.667V378.667C256 387.499 263.168 394.667 272 394.667H432C476.139 394.667 512 358.805 512 314.667C512 270.571 476.139 234.667 432 234.667Z" fill="white"/>
<path d="M192 154.667V378.667C192 387.499 199.168 394.667 208 394.667C216.832 394.667 224 387.499 224 378.667V154.667C224 145.835 216.832 138.667 208 138.667C199.168 138.667 192 145.835 192 154.667Z" fill="white"/>
<path d="M128 218.667V378.667C128 387.499 135.168 394.667 144 394.667C152.832 394.667 160 387.499 160 378.667V218.667C160 209.835 152.832 202.667 144 202.667C135.168 202.667 128 209.835 128 218.667Z" fill="white"/>
<path d="M64 378.667C64 387.499 71.168 394.667 80 394.667C88.832 394.667 96 387.499 96 378.667V218.667C96 209.835 88.832 202.667 80 202.667C71.168 202.667 64 209.835 64 218.667V378.667Z" fill="white"/>
<path d="M16 394.667C24.832 394.667 32 387.499 32 378.667V282.667C32 273.835 24.832 266.667 16 266.667C7.168 266.667 0 273.835 0 282.667V378.667C0 387.499 7.168 394.667 16 394.667Z" fill="white"/>
</g>
<defs>
<clipPath id="clip0">
<rect width="512" height="512" fill="white"/>
</clipPath>
</defs>
</svg>
